<mxfile host="app.diagrams.net" agent="Mozilla/5.0 (Macintosh; Intel Mac OS X 10_15_7) AppleWebKit/605.1.15 (KHTML, like Gecko) Version/18.0.1 Safari/605.1.15" version="24.8.3">
  <diagram name="Page-1" id="924dohbuH_Oe8iANkcs4">
    <mxGraphModel dx="626" dy="416" grid="1" gridSize="10" guides="1" tooltips="1" connect="1" arrows="1" fold="1" page="1" pageScale="1" pageWidth="827" pageHeight="1169" math="0" shadow="0">
      <root>
        <mxCell id="0" />
        <mxCell id="1" parent="0" />
        <mxCell id="i3iJV8fuebZiY-3vzbVX-1" value="" style="rounded=0;whiteSpace=wrap;html=1;" vertex="1" parent="1">
          <mxGeometry x="270" y="150" width="180" height="130" as="geometry" />
        </mxCell>
        <mxCell id="i3iJV8fuebZiY-3vzbVX-7" value="&amp;lt;&amp;lt;Include&amp;gt;&amp;gt;" style="rounded=0;orthogonalLoop=1;jettySize=auto;html=1;dashed=1;endArrow=none;endFill=0;startArrow=classic;startFill=1;" edge="1" parent="1" target="i3iJV8fuebZiY-3vzbVX-6">
          <mxGeometry relative="1" as="geometry">
            <mxPoint x="329.86393923832156" y="180.54424304671397" as="sourcePoint" />
          </mxGeometry>
        </mxCell>
        <mxCell id="i3iJV8fuebZiY-3vzbVX-16" value="" style="edgeStyle=orthogonalEdgeStyle;rounded=0;orthogonalLoop=1;jettySize=auto;html=1;endArrow=none;endFill=0;startArrow=classic;startFill=1;" edge="1" parent="1" source="i3iJV8fuebZiY-3vzbVX-9" target="i3iJV8fuebZiY-3vzbVX-14">
          <mxGeometry relative="1" as="geometry" />
        </mxCell>
        <mxCell id="i3iJV8fuebZiY-3vzbVX-9" value="Obični&lt;div&gt;Korisnik&lt;/div&gt;" style="shape=umlActor;verticalLabelPosition=bottom;verticalAlign=top;html=1;outlineConnect=0;" vertex="1" parent="1">
          <mxGeometry x="510" y="180" width="30" height="60" as="geometry" />
        </mxCell>
        <mxCell id="i3iJV8fuebZiY-3vzbVX-15" value="" style="edgeStyle=orthogonalEdgeStyle;rounded=0;orthogonalLoop=1;jettySize=auto;html=1;endArrow=classic;endFill=1;" edge="1" parent="1" source="i3iJV8fuebZiY-3vzbVX-12" target="i3iJV8fuebZiY-3vzbVX-14">
          <mxGeometry relative="1" as="geometry" />
        </mxCell>
        <mxCell id="i3iJV8fuebZiY-3vzbVX-12" value="Trener" style="shape=umlActor;verticalLabelPosition=bottom;verticalAlign=top;html=1;outlineConnect=0;" vertex="1" parent="1">
          <mxGeometry x="180" y="180" width="30" height="60" as="geometry" />
        </mxCell>
        <mxCell id="i3iJV8fuebZiY-3vzbVX-14" value="Plan treninga" style="ellipse;whiteSpace=wrap;html=1;" vertex="1" parent="1">
          <mxGeometry x="300" y="170" width="120" height="80" as="geometry" />
        </mxCell>
      </root>
    </mxGraphModel>
  </diagram>
</mxfile>
